<svg width="240" height="164" viewBox="0 0 240 164" fill="none" xmlns="http://www.w3.org/2000/svg">
<path d="M29.4582 133.174L44.1235 133.318L44.1054 163.753H0.00634766V87.7596L44.0993 87.7471L44.1235 118.082L29.4945 118.176L29.4582 133.174ZM29.3855 102.958H14.7747V118.038H29.3855V102.958ZM29.3855 133.312H14.7747V148.423H29.3855V133.312Z" fill="#EBEBEB"/>
<path d="M84.8967 45.8586L70.2859 45.671L70.2435 76.012L55.5479 76.0745V0.0126953H99.6348V76.0245L84.9149 76.0557L84.8906 45.8648L84.8967 45.8586ZM84.9028 15.2926H70.2677V30.3349H84.9028V15.2926Z" fill="#EBEBEB"/>
<path d="M29.361 60.7825L29.3973 30.4166L44.1111 30.3665L44.1172 75.9749L0 75.9499L0.0121131 0.00683594L44.099 0.0193426L44.1051 15.2742L14.7744 15.3117L14.7683 60.7262L29.361 60.7825Z" fill="#EBEBEB"/>
<path d="M240 45.6521L210.633 45.6833L210.627 60.7506L240 60.7757L239.976 75.9555L195.883 75.9617V0.0250133L239.939 0L239.994 15.2861L210.633 15.2986V30.3159L239.982 30.3534L240 45.6521Z" fill="#EBEBEB"/>
<path d="M140.354 103.021L125.779 102.971L125.773 163.653L110.962 163.659V87.7537L155.104 87.7412L155.086 163.734L140.36 163.74L140.354 103.021Z" fill="#EBEBEB"/>
<path d="M169.727 15.4858L155.098 15.3358V60.7878L140.36 60.794L140.354 15.292L125.785 15.3108L125.773 75.9301L110.962 75.9239V0.0121175L140.378 0.00585938L140.438 15.2357L154.983 15.242L155.074 0.00585938L184.447 0.0246241V75.9301L169.739 75.9864L169.727 15.4858Z" fill="#EBEBEB"/>
<path d="M70.2677 148.398L99.6287 148.423L99.6105 163.765L55.5479 163.734L55.5539 87.7412L99.6348 87.7475L99.6287 102.959H70.2738L70.2677 148.398Z" fill="#EBEBEB"/>
</svg>
