<svg width="40" height="40" viewBox="0 0 40 40" fill="none" xmlns="http://www.w3.org/2000/svg">
<path d="M30.4232 0.000117386H9.12288C7.91528 1.58695e-05 6.71967 0.238601 5.60542 0.702026C4.49117 1.16545 3.48047 1.8445 2.63189 2.69978C1.78331 3.55504 1.11376 4.56952 0.662095 5.68438C0.210426 6.79922 -0.0143735 7.99224 0.000711903 9.19424V30.3974C-0.0143735 31.5994 0.210426 32.7924 0.662095 33.9073C1.11376 35.0221 1.78331 36.0367 2.63189 36.8919C3.48047 37.7473 4.49117 38.4262 5.60542 38.8897C6.71967 39.353 7.91528 39.5916 9.12288 39.5916H18.7924V25.4485H15.0979C14.8681 25.4485 14.6476 25.3577 14.4851 25.1959C14.3226 25.0341 14.2313 24.8146 14.2313 24.586V20.0455C14.2313 19.8108 14.325 19.5857 14.4918 19.4196C14.6586 19.2535 14.8848 19.1603 15.1207 19.1603H18.7924V14.7334C18.6903 13.6883 18.8184 12.6336 19.1678 11.6428C19.5172 10.652 20.0797 9.7491 20.8156 8.99692C21.5516 8.24476 22.4438 7.66148 23.4295 7.2878C24.4154 6.91411 25.4712 6.75899 26.5233 6.83328H30.2864C30.4021 6.83324 30.5166 6.85629 30.6232 6.90104C30.73 6.94581 30.8264 7.01139 30.9072 7.09392C30.9881 7.17643 31.0514 7.27423 31.0936 7.38154C31.1359 7.48884 31.156 7.60345 31.1529 7.71863V11.5552C31.1529 11.784 31.0616 12.0034 30.8991 12.1652C30.7365 12.327 30.5162 12.4179 30.2864 12.4179H28.0057C25.4972 12.4179 25.0182 13.5983 25.0182 15.3237V19.1376H30.4916C30.6157 19.1364 30.7385 19.1619 30.8518 19.2121C30.9651 19.2624 31.0662 19.3363 31.1485 19.4289C31.2307 19.5215 31.2918 19.6305 31.3279 19.7487C31.3643 19.8667 31.3744 19.9913 31.3582 20.1138L30.8108 24.654C30.7883 24.8668 30.687 25.0635 30.527 25.206C30.3668 25.3488 30.1591 25.4269 29.9443 25.4259H25.041V39.5689H30.4687C31.6763 39.5691 32.872 39.3305 33.9863 38.867C35.1005 38.4037 36.1112 37.7245 36.9597 36.8693C37.8084 36.014 38.4778 34.9996 38.9295 33.8847C39.3813 32.7699 39.606 31.5768 39.5908 30.3747V9.19424C39.606 7.98841 39.3799 6.79164 38.9253 5.6738C38.4709 4.55597 37.7972 3.53944 36.9436 2.68356C36.0903 1.82769 35.0741 1.14957 33.9546 0.688849C32.8351 0.228124 31.6345 -0.00601424 30.4232 0.000117386Z" fill="white"/>
</svg>
