<svg width="40" height="40" viewBox="0 0 40 40" fill="none" xmlns="http://www.w3.org/2000/svg">
<path d="M30.5627 0H9.02888C6.63428 0 4.33776 0.951255 2.64452 2.6445C0.951275 4.33774 0 6.63428 0 9.02888V30.5627C0 32.9573 0.951275 35.2538 2.64452 36.9471C4.33776 38.6404 6.63428 39.5916 9.02888 39.5916H30.5627C32.9573 39.5916 35.254 38.6404 36.9471 36.9471C38.6404 35.2538 39.5916 32.9573 39.5916 30.5627V9.02888C39.5916 6.63428 38.6404 4.33774 36.9471 2.6445C35.254 0.951255 32.9573 0 30.5627 0ZM13.3853 31.9622C13.3915 32.0727 13.375 32.1831 13.3369 32.2871C13.2989 32.391 13.24 32.4858 13.1639 32.5662C13.0878 32.6464 12.9961 32.7104 12.8945 32.754C12.7928 32.7977 12.6833 32.8202 12.5727 32.82H8.96117C8.7436 32.8141 8.53693 32.7236 8.38514 32.5675C8.23337 32.4115 8.14848 32.2024 8.14856 31.9847V16.9517C8.14554 16.8431 8.16436 16.7351 8.20385 16.6338C8.24332 16.5326 8.30267 16.4403 8.37844 16.3625C8.45419 16.2845 8.54483 16.2228 8.64492 16.1804C8.745 16.1382 8.85252 16.1164 8.96117 16.1166H12.5727C12.6814 16.1164 12.7889 16.1382 12.889 16.1804C12.9891 16.2228 13.0797 16.2845 13.1555 16.3625C13.2312 16.4403 13.2906 16.5326 13.3301 16.6338C13.3696 16.7351 13.3883 16.8431 13.3853 16.9517V31.9622ZM10.6992 12.9564C10.1109 12.952 9.53709 12.7735 9.05009 12.4434C8.5631 12.1133 8.1847 11.6464 7.96265 11.1016C7.74059 10.5567 7.68481 9.95839 7.80231 9.38191C7.91981 8.80544 8.20535 8.27666 8.62293 7.8622C9.04051 7.44777 9.57143 7.16622 10.1488 7.05309C10.7261 6.93994 11.3241 7.00024 11.8672 7.2264C12.4103 7.45256 12.8743 7.83445 13.2007 8.32394C13.5271 8.81342 13.7013 9.38857 13.7013 9.9769C13.7013 10.3701 13.6235 10.7594 13.4724 11.1224C13.3213 11.4853 13.0997 11.8148 12.8207 12.0918C12.5416 12.3687 12.2105 12.5877 11.8464 12.7361C11.4823 12.8846 11.0924 12.9594 10.6992 12.9564ZM32.6619 31.9397C32.6621 32.1453 32.5819 32.3429 32.4385 32.4905C32.2954 32.6379 32.1001 32.7238 31.8946 32.7297H28.0798C27.8741 32.7238 27.679 32.6379 27.5357 32.4905C27.3923 32.3429 27.3123 32.1453 27.3123 31.9397V24.9874C27.3123 23.9491 27.6285 20.4729 24.5586 20.4729C22.1658 20.4729 21.6919 22.9108 21.6016 23.9941V32.0976C21.6016 32.3033 21.5216 32.5009 21.3783 32.6485C21.2349 32.7961 21.0398 32.8817 20.8341 32.8876H17.1324C17.0287 32.8876 16.9259 32.8673 16.8299 32.8275C16.7341 32.7877 16.647 32.7297 16.5737 32.6564C16.5004 32.5829 16.4421 32.4958 16.4025 32.3999C16.3627 32.3041 16.3422 32.2014 16.3422 32.0976V16.8839C16.3481 16.6784 16.434 16.4833 16.5816 16.34C16.729 16.1966 16.9267 16.1164 17.1324 16.1166H20.8341C21.0398 16.1164 21.2373 16.1966 21.385 16.34C21.5326 16.4833 21.6182 16.6784 21.6241 16.8839V18.1933C22.1646 17.4024 22.9106 16.7745 23.7818 16.3767C24.6528 15.9788 25.616 15.8265 26.5674 15.9359C32.7297 15.9359 32.7071 21.6919 32.7071 24.9648L32.6619 31.9397Z" fill="white"/>
</svg>
