<svg width="60" height="60" viewBox="0 0 60 60" fill="none" xmlns="http://www.w3.org/2000/svg">
<path d="M30 9.375C23.9025 9.375 15.5852 9.47036 13.8977 9.62036C12.004 10.7566 8.25527 15.058 8.21777 16.1755V18.0505C8.21777 20.4187 10.4357 22.5 12.4438 22.5C14.8495 22.5 16.8567 20.4937 16.8567 18.1274C16.8567 20.4937 18.8072 22.5 21.2109 22.5C23.6353 22.5 25.5103 20.4956 25.5103 18.1274C25.5103 20.4937 27.5537 22.5 29.978 22.5H30.0183C32.4427 22.5 34.4861 20.4956 34.4861 18.1274C34.4861 20.4937 36.3798 22.5 38.7854 22.5C41.191 22.5 43.1433 20.4956 43.1433 18.1274C43.1433 20.4937 45.1505 22.5 47.5562 22.5C49.5643 22.5 51.7786 20.4187 51.7786 18.0505V16.1755C51.7411 15.058 47.9924 10.7566 46.0986 9.62036C40.2074 9.41224 36.0975 9.375 30 9.375ZM25.4077 22.0166C23.4333 25.4104 18.4731 25.4511 16.5381 22.0386C15.3568 24.0861 12.6831 24.8767 11.5393 24.4885C11.2056 28.0492 10.9753 46.3289 13.3997 49.3945C20.519 51.0539 39.6835 51.0183 46.6003 49.3945C49.4035 46.537 48.7757 27.7904 48.4607 24.4885C47.3169 24.8767 44.6427 24.0861 43.4802 22.0386C41.5246 25.4511 36.5648 25.4104 34.5923 22.0166C33.9829 23.1229 32.5631 24.5801 30 24.5801C28.1194 24.6532 26.3471 23.6385 25.4077 22.0166ZM21.4124 26.25C22.9124 26.25 24.2814 26.2509 25.9314 28.0884C28.6501 27.8071 31.3499 27.8071 34.0686 28.0884C35.7374 26.2696 37.0876 26.2683 38.5876 26.2683C43.4251 26.2683 44.5893 33.4118 46.333 39.5618C47.908 45.2805 45.8045 45.4321 43.1982 45.4321C39.317 45.2821 37.1631 42.4699 37.1631 39.6387C33.5443 40.2387 27.7682 40.4637 22.8369 39.6387C22.8369 42.4699 20.683 45.2821 16.8018 45.4321C14.1955 45.4321 12.092 45.2805 13.667 39.5618C15.4107 33.3743 16.5749 26.2683 21.4124 26.2683V26.25ZM30 31.6443C30 31.6443 26.8237 34.5738 26.25 35.5957L28.3264 35.5188V37.3315C28.3264 37.4403 29.8612 37.3462 30 37.3462C30.8381 37.3781 31.6736 37.4084 31.6736 37.3315V35.5188L33.75 35.5957C33.1763 34.572 30 31.6443 30 31.6443Z" fill="#B63535"/>
</svg>
