<svg width="41" height="31" viewBox="0 0 41 31" fill="none" xmlns="http://www.w3.org/2000/svg">
<path d="M36.3183 5.94093C35.054 3.61869 32.9544 1.86369 30.4447 1.03125C28.9555 0.49189 27.4035 0.145332 25.8265 0C25.4424 0.681991 25.098 1.38561 24.7951 2.10735C21.7269 1.6367 18.6046 1.6367 15.5363 2.10735C15.2212 1.38743 14.8695 0.684062 14.4827 0C12.9551 0.167645 11.4511 0.506042 9.99893 1.00884C7.4721 1.84519 5.36196 3.61833 4.10285 5.96335C0.779469 11.9724 -0.57692 18.8719 0.224455 25.6916C3.27981 27.9629 6.69868 29.6989 10.3352 30.8255C11.3658 29.8233 12.1355 28.5842 12.5771 27.2162C11.4823 26.8069 10.4248 26.3044 9.41606 25.7141C9.23672 25.4675 9.93171 25.064 10.1559 24.9966C13.3448 26.4912 16.8234 27.2659 20.3452 27.2659C23.8668 27.2659 27.3454 26.4912 30.5343 24.9966C30.7361 24.9966 31.4536 25.4675 31.2741 25.7141C30.3773 26.4091 28.3821 26.9023 28.0459 27.3955C28.6331 28.6358 29.3873 29.79 30.2878 30.8255C33.9312 29.6989 37.3574 27.9629 40.421 25.6916C41.1515 18.841 39.7167 11.9338 36.3183 5.94093ZM13.5411 20.8941C12.4985 20.8823 11.503 20.4582 10.7721 19.7147C10.0412 18.9712 9.63424 17.9686 9.64023 16.926C9.65767 15.8989 10.075 14.9192 10.8034 14.195C11.5318 13.4708 12.514 13.059 13.5411 13.0477C14.0611 13.0505 14.5755 13.1563 15.0545 13.3587C15.5336 13.5609 15.9679 13.8562 16.3325 14.2271C16.6971 14.5978 16.9848 15.0372 17.1791 15.5196C17.3732 16.002 17.4703 16.5181 17.4644 17.0381C17.441 18.065 17.0181 19.0425 16.2854 19.7626C15.5528 20.4826 14.5683 20.8884 13.5411 20.8941ZM26.9921 20.8941C25.9496 20.8882 24.9519 20.4698 24.2167 19.7305C23.4815 18.9913 23.0689 17.9909 23.0689 16.9484C23.0748 15.9119 23.4908 14.9196 24.226 14.1887C24.961 13.4578 25.9557 13.0477 26.9921 13.0477C27.5113 13.0477 28.025 13.1506 28.5039 13.3504C28.9829 13.5504 29.4174 13.8434 29.7824 14.2125C30.1473 14.5816 30.4352 15.0193 30.6297 15.5005C30.8242 15.9817 30.9215 16.4968 30.9154 17.0158C30.8979 18.0445 30.4766 19.0252 29.7428 19.7464C29.0091 20.4677 28.0211 20.8718 26.9921 20.8716V20.8941Z" fill="white"/>
</svg>
