<svg width="41" height="29" viewBox="0 0 41 29" fill="none" xmlns="http://www.w3.org/2000/svg">
<path d="M40.6058 14.0676C40.6259 10.8002 40.3477 7.53758 39.7748 4.32065C39.5216 3.47131 39.0505 2.70307 38.4083 2.09237C37.7661 1.48164 36.9751 1.04975 36.1141 0.839608C30.8522 0.223563 25.5561 -0.0539851 20.2585 0.0086509C14.9603 -0.0546348 9.66372 0.230445 4.40295 0.862063C3.54988 1.09791 2.77249 1.55086 2.14666 2.17669C1.52082 2.80252 1.0679 3.57988 0.832032 4.43294C0.258339 7.64977 -0.0197973 10.9122 0.0010949 14.1799C-0.0190461 17.4473 0.25907 20.7098 0.832032 23.9267C1.07112 24.7904 1.52986 25.5774 2.16351 26.2111C2.79718 26.8447 3.58418 27.3036 4.44784 27.5426C9.70979 28.1586 15.0059 28.4361 20.3034 28.3736C25.5861 28.4434 30.8679 28.1657 36.1141 27.5426C36.9672 27.3066 37.7446 26.8539 38.3704 26.2279C38.9961 25.6022 39.4491 24.8247 39.685 23.9718C40.3087 20.7074 40.6171 17.3909 40.6058 14.0676ZM25.5593 15.2488L17.4288 19.8618C17.2648 19.9513 17.0804 19.9968 16.8936 19.9935C16.7068 19.9903 16.5241 19.9385 16.3633 19.8435C16.2026 19.7483 16.0693 19.6131 15.9765 19.451C15.8838 19.2888 15.8347 19.1053 15.8342 18.9185V9.35132C15.8319 9.16382 15.8795 8.97906 15.9722 8.81606C16.065 8.65306 16.1994 8.51772 16.3619 8.42394C16.5241 8.33016 16.7087 8.28135 16.8961 8.28251C17.0837 8.28367 17.2674 8.33475 17.4288 8.43054L25.8281 13.2591C25.9896 13.3547 26.1227 13.4916 26.2137 13.6558C26.3047 13.8199 26.3501 14.0055 26.3455 14.1931C26.341 14.3807 26.2864 14.5636 26.1875 14.7232C26.0888 14.8828 25.9492 15.0129 25.7833 15.1006L25.5593 15.2488Z" fill="white"/>
</svg>
