<svg width="60" height="60" viewBox="0 0 60 60" fill="none" xmlns="http://www.w3.org/2000/svg">
<path d="M22.6423 34.2455C22.0087 34.2483 21.3811 34.3668 20.7905 34.5953L23.2489 35.5493C23.7854 35.772 24.3078 36.027 24.8134 36.3125C25.3168 36.6755 25.7245 37.1543 26.0025 37.708C26.2803 38.2615 26.42 38.8738 26.4097 39.4925C26.4012 40.5245 25.9838 41.5113 25.2483 42.2378C24.5128 42.9645 23.5187 43.3723 22.4827 43.3723C21.7693 43.3233 21.0737 43.1285 20.4393 42.7998L17.6617 41.6868C18.0896 42.63 18.7803 43.4313 19.6519 43.995C20.5235 44.5585 21.5393 44.8613 22.5785 44.8668C23.9926 44.8668 25.3488 44.3073 26.3488 43.3115C27.3485 42.3155 27.9102 40.9648 27.9102 39.5563C27.9102 38.1478 27.3485 36.797 26.3488 35.801C25.3488 34.805 23.9926 34.2455 22.5785 34.2455H22.6423ZM29.9857 5.62503C23.8251 5.61595 17.8893 7.92898 13.3705 12.0995C8.85172 16.27 6.0846 21.9891 5.625 28.108L18.811 33.7048C19.959 32.996 21.2923 32.6418 22.6423 32.6873H22.9935L28.8042 24.4827C28.7875 24.3029 28.7875 24.1219 28.8042 23.9421C28.8042 22.0553 29.366 20.2108 30.4185 18.6419C31.471 17.073 32.967 15.8503 34.717 15.1282C36.4672 14.4061 38.3933 14.2172 40.2513 14.5853C42.1093 14.9534 43.8158 15.862 45.1555 17.1962C46.495 18.5304 47.4073 20.2303 47.7768 22.0809C48.1463 23.9315 47.9568 25.8498 47.2318 27.593C46.5068 29.3363 45.279 30.8263 43.704 31.8745C42.1287 32.9228 40.277 33.4823 38.3825 33.4823H37.9995L29.6025 39.4925V39.747C29.5765 41.448 28.9235 43.0803 27.7677 44.333C26.6117 45.5858 25.0338 46.3712 23.3341 46.54C21.6344 46.709 19.9317 46.2495 18.5501 45.249C17.1686 44.2485 16.2046 42.777 15.8418 41.1145L6.5509 37.203C7.8849 41.5058 10.3904 45.356 13.789 48.3262C17.1876 51.2962 21.3463 53.2698 25.803 54.0275C30.26 54.7855 34.8405 54.2977 39.0357 52.619C43.2312 50.9402 46.8773 48.1358 49.569 44.5175C52.2605 40.899 53.8925 36.6083 54.2835 32.1218C54.6742 27.6353 53.809 23.1288 51.7833 19.1026C49.7578 15.0765 46.6513 11.6885 42.809 9.31488C38.9665 6.9413 34.5388 5.67505 30.0175 5.65683L29.9857 5.62503Z" fill="#B63535"/>
<path d="M38.2545 17.582C36.9918 17.582 35.757 17.955 34.707 18.6539C33.657 19.3528 32.8385 20.3461 32.3553 21.5082C31.8718 22.6704 31.7455 23.9492 31.9918 25.183C32.2383 26.4168 32.8463 27.55 33.7393 28.4395C34.6325 29.3288 35.7703 29.9345 37.0088 30.18C38.2475 30.4255 39.5315 30.2995 40.6983 29.818C41.865 29.3368 42.8623 28.5215 43.564 27.4755C44.2655 26.4298 44.64 25.2 44.64 23.9421C44.64 22.2553 43.9673 20.6376 42.7698 19.4449C41.5723 18.2521 39.9483 17.582 38.2545 17.582ZM38.2545 28.6805C37.2998 28.6868 36.3645 28.4105 35.5675 27.8868C34.7705 27.3628 34.1478 26.615 33.7778 25.7383C33.408 24.8614 33.308 23.8949 33.4905 22.9614C33.6728 22.0278 34.1295 21.1692 34.8023 20.4945C35.4753 19.8198 36.3343 19.3593 37.2703 19.1714C38.2063 18.9835 39.1773 19.0767 40.0603 19.4392C40.943 19.8017 41.6978 20.4171 42.229 21.2075C42.76 21.9978 43.0438 22.9275 43.0438 23.8785C43.0438 25.1465 42.5403 26.3633 41.643 27.2628C40.7458 28.1625 39.5278 28.672 38.2545 28.6805Z" fill="#B63535"/>
</svg>
