<svg width="40" height="40" viewBox="0 0 40 40" fill="none" xmlns="http://www.w3.org/2000/svg">
<path d="M23.4973 20.271C23.4646 20.9812 23.2313 21.6674 22.8242 22.2505C22.4155 22.853 21.8265 23.3102 21.1417 23.5571C20.464 23.8334 19.7178 23.8955 19.0038 23.7351C18.2858 23.5818 17.6306 23.2164 17.1231 22.6861C16.6205 22.1328 16.2902 21.4447 16.1729 20.7065C16.0403 19.9906 16.1302 19.2515 16.4303 18.5882C16.7229 17.9229 17.2047 17.3582 17.816 16.965C18.4403 16.5782 19.1601 16.3725 19.8945 16.3711C20.8627 16.4241 21.775 16.8413 22.4482 17.5391C22.7968 17.9014 23.0691 18.3296 23.2494 18.7988C23.4295 19.268 23.514 19.7687 23.4973 20.271Z" fill="white"/>
<path d="M30.4853 11.6792C30.2543 11.1086 29.9109 10.5903 29.4756 10.155C29.0403 9.71971 28.522 9.37636 27.9515 9.14539C27.3769 8.92081 26.767 8.80017 26.1499 8.78906H13.6391C12.4017 8.79428 11.2164 9.28816 10.3414 10.1632C9.46636 11.0382 8.97248 12.2234 8.96729 13.4609V26.2094C8.96816 26.8246 9.09108 27.4337 9.32893 28.0012C9.56678 28.5687 9.91486 29.0832 10.353 29.5152C11.2277 30.3826 12.4073 30.8729 13.6391 30.8812H26.1499C27.382 30.8729 28.5614 30.3826 29.436 29.5152C29.8742 29.0832 30.2224 28.5687 30.4601 28.0012C30.6981 27.4337 30.8209 26.8246 30.8218 26.2094V13.4807C30.8175 12.865 30.7036 12.255 30.4853 11.6792ZM25.5364 22.7254C25.2383 23.4662 24.7941 24.1397 24.2299 24.7049C23.6599 25.2785 22.9887 25.7416 22.2503 26.0707C21.5037 26.3844 20.7042 26.5523 19.8945 26.5657C18.9672 26.5838 18.0475 26.3956 17.2018 26.0145C16.3562 25.6334 15.606 25.0692 15.0053 24.3624C14.4047 23.6557 13.9687 22.8242 13.729 21.9282C13.4893 21.0323 13.4518 20.094 13.6193 19.1818C13.8632 17.9687 14.4467 16.8495 15.3019 15.9552C16.1749 15.0801 17.2855 14.4806 18.496 14.2307C19.7065 13.9809 20.9636 14.0918 22.1116 14.5496C23.264 15.015 24.2455 15.8236 24.9226 16.8658C25.6074 17.8702 25.9794 19.0551 25.9916 20.2707C26.0206 21.1122 25.8651 21.95 25.5364 22.7254ZM27.7139 12.9462C27.7352 13.1055 27.722 13.2676 27.6755 13.4215C27.629 13.5754 27.5503 13.7176 27.4445 13.8386C27.3385 13.9595 27.208 14.0565 27.0616 14.1229C26.9152 14.1893 26.7562 14.2237 26.5954 14.2237C26.4346 14.2237 26.2758 14.1893 26.1294 14.1229C25.9828 14.0565 25.8523 13.9595 25.7465 13.8386C25.6405 13.7176 25.5618 13.5754 25.5153 13.4215C25.4688 13.2676 25.4558 13.1055 25.4769 12.9462C25.4558 12.7868 25.4688 12.6248 25.5153 12.4708C25.5618 12.3169 25.6405 12.1747 25.7465 12.0538C25.8523 11.9328 25.9828 11.8359 26.1294 11.7695C26.2758 11.703 26.4346 11.6687 26.5954 11.6687C26.7562 11.6687 26.9152 11.703 27.0616 11.7695C27.208 11.8359 27.3385 11.9328 27.4445 12.0538C27.5503 12.1747 27.629 12.3169 27.6755 12.4708C27.722 12.6248 27.7352 12.7868 27.7139 12.9462Z" fill="white"/>
<path d="M29.6937 0H9.8979C7.27282 0 4.75524 1.0428 2.89902 2.89902C1.0428 4.75524 0 7.27282 0 9.8979V29.6937C0 32.3187 1.0428 34.8364 2.89902 36.6925C4.75524 38.5488 7.27282 39.5916 9.8979 39.5916H29.6937C32.3187 39.5916 34.8364 38.5488 36.6925 36.6925C38.5488 34.8364 39.5916 32.3187 39.5916 29.6937V9.8979C39.5916 7.27282 38.5488 4.75524 36.6925 2.89902C34.8364 1.0428 32.3187 0 29.6937 0ZM33.8904 26.0117C33.9091 27.05 33.7136 28.081 33.3164 29.0406C32.5132 30.9641 30.9838 32.4933 29.0602 33.2965C28.1007 33.6939 27.0697 33.8892 26.0314 33.8707H13.8571C12.8189 33.8876 11.7883 33.6923 10.8283 33.2965C9.87679 32.8962 9.01016 32.3185 8.27465 31.5941C7.54606 30.862 6.96772 29.9946 6.57221 29.0406C6.15455 28.0853 5.93888 27.0541 5.93874 26.0117V13.7383C5.92179 12.7001 6.11715 11.6695 6.51282 10.7095C7.29805 8.77842 8.81315 7.23487 10.7293 6.41384C11.7252 6.02647 12.7891 5.84466 13.8571 5.87935H26.1305C27.1594 5.87026 28.1799 6.06698 29.1317 6.45792C30.0835 6.84888 30.9476 7.42617 31.6733 8.15587C32.3977 8.89138 32.9753 9.75801 33.3757 10.7095C33.7714 11.6695 33.9668 12.7001 33.9499 13.7383L33.8904 26.0117Z" fill="white"/>
</svg>
