<svg width="20" height="20" viewBox="0 0 20 20" fill="none" xmlns="http://www.w3.org/2000/svg">
<path d="M16.964 6.45894C16.9601 6.34899 16.9158 6.24436 16.8396 6.16496C16.7634 6.08556 16.6608 6.03696 16.5511 6.0284C15.8206 5.96033 15.1237 5.68948 14.539 5.2464C14.1051 4.91754 13.7422 4.50442 13.4718 4.03184C13.2016 3.55924 13.0296 3.03693 12.9662 2.49622C12.9576 2.38654 12.909 2.28384 12.8296 2.20768C12.7503 2.13152 12.6456 2.08724 12.5357 2.08325H10.7783C10.721 2.08324 10.6643 2.09466 10.6115 2.11684C10.5587 2.13903 10.5108 2.17153 10.4708 2.21244C10.4307 2.25336 10.3991 2.30187 10.378 2.35512C10.3569 2.40838 10.3466 2.4653 10.3478 2.52258V13.0137C10.3429 13.4997 10.1861 13.9718 9.89935 14.3643C9.61251 14.7566 9.21018 15.0493 8.74868 15.2015C8.46552 15.2944 8.16747 15.3332 7.87001 15.3158C7.4945 15.2952 7.12963 15.1836 6.80684 14.9907C6.34438 14.7168 5.98995 14.2926 5.80282 13.7888C5.6157 13.285 5.60722 12.7322 5.77881 12.2229C5.95481 11.7167 6.29763 11.2853 6.75105 10.9995C7.20446 10.7137 7.74155 10.5905 8.27418 10.6501C8.33318 10.6563 8.39276 10.65 8.4491 10.6316C8.50543 10.6132 8.55726 10.5831 8.60126 10.5433C8.64518 10.5035 8.68026 10.4548 8.7041 10.4006C8.72801 10.3463 8.74018 10.2877 8.73985 10.2283V8.17231C8.73985 8.17231 7.99301 8.11959 7.73821 8.11959C7.08476 8.11654 6.43888 8.25931 5.8476 8.5375C5.25631 8.81567 4.73452 9.22217 4.32025 9.7275C3.76933 10.3206 3.37652 11.0428 3.178 11.8275C2.97428 12.6513 2.98869 13.514 3.21979 14.3306C3.4509 15.1472 3.89073 15.8895 4.49598 16.4843C4.64099 16.6304 4.79664 16.7655 4.96166 16.8885C5.82994 17.5583 6.89645 17.92 7.99301 17.9166C8.2429 17.9168 8.49251 17.8991 8.73985 17.8638C9.78285 17.7093 10.7493 17.226 11.4988 16.4843C11.9571 16.0348 12.3218 15.499 12.5722 14.9079C12.8225 14.3168 12.9534 13.682 12.9574 13.0401V7.25851C13.9718 8.04141 15.194 8.50892 16.472 8.60283C16.5314 8.6065 16.591 8.59775 16.6469 8.57725C16.7029 8.55667 16.7539 8.52475 16.7968 8.4835C16.8398 8.44217 16.8738 8.39242 16.8964 8.33734C16.9192 8.28228 16.9303 8.22309 16.9289 8.16353V6.45894H16.964Z" fill="#380404"/>
</svg>
