<svg width="20" height="20" viewBox="0 0 20 20" fill="none" xmlns="http://www.w3.org/2000/svg">
<path d="M14.4192 1.875H5.58082C4.59797 1.875 3.65539 2.26543 2.96042 2.96041C2.26544 3.65538 1.875 4.59797 1.875 5.58082V14.4192C1.875 15.402 2.26544 16.3446 2.96042 17.0396C3.65539 17.7346 4.59797 18.125 5.58082 18.125H14.4192C15.402 18.125 16.3447 17.7346 17.0396 17.0396C17.7346 16.3446 18.125 15.402 18.125 14.4192V5.58082C18.125 4.59797 17.7346 3.65538 17.0396 2.96041C16.3447 2.26543 15.402 1.875 14.4192 1.875ZM7.36888 14.9936C7.3714 15.0389 7.36464 15.0842 7.34902 15.1269C7.33339 15.1696 7.30922 15.2085 7.27799 15.2415C7.24677 15.2744 7.20914 15.3007 7.16742 15.3186C7.1257 15.3365 7.08076 15.3458 7.03536 15.3457H5.55302C5.46372 15.3433 5.3789 15.3061 5.3166 15.242C5.25431 15.178 5.21947 15.0922 5.2195 15.0028V8.83267C5.21826 8.78808 5.22598 8.74375 5.24219 8.70217C5.25839 8.66067 5.28275 8.62275 5.31385 8.59083C5.34494 8.55883 5.38214 8.5335 5.42323 8.51608C5.4643 8.49875 5.50843 8.48983 5.55302 8.48992H7.03536C7.07994 8.48983 7.12408 8.49875 7.16516 8.51608C7.20624 8.5335 7.24343 8.55883 7.27453 8.59083C7.30562 8.62275 7.33 8.66067 7.3462 8.70217C7.36241 8.74375 7.37012 8.78808 7.36888 8.83267V14.9936ZM6.2664 7.19284C6.02492 7.19102 5.78941 7.11774 5.58952 6.98226C5.38964 6.84677 5.23433 6.65515 5.14319 6.43153C5.05205 6.20792 5.02916 5.96232 5.07738 5.72572C5.12561 5.48911 5.24281 5.27208 5.4142 5.10197C5.58559 4.93187 5.8035 4.81631 6.04047 4.76987C6.27743 4.72343 6.52285 4.74818 6.74577 4.84101C6.96868 4.93383 7.15913 5.09057 7.29311 5.29148C7.42707 5.49238 7.49857 5.72845 7.49858 5.96992C7.49858 6.13131 7.46665 6.29109 7.40462 6.44007C7.34258 6.58904 7.25167 6.72427 7.13713 6.83795C7.02258 6.95163 6.88667 7.04152 6.73722 7.10242C6.58778 7.16334 6.42777 7.19407 6.2664 7.19284ZM15.2808 14.9843C15.2808 15.0687 15.2479 15.1498 15.1891 15.2104C15.1303 15.2709 15.0502 15.3062 14.9658 15.3086H13.4001C13.3157 15.3062 13.2356 15.2709 13.1768 15.2104C13.1179 15.1498 13.0851 15.0687 13.0851 14.9843V12.1308C13.0851 11.7047 13.2148 10.2779 11.9548 10.2779C10.9728 10.2779 10.7782 11.2785 10.7412 11.7232V15.0492C10.7412 15.1336 10.7083 15.2147 10.6495 15.2752C10.5907 15.3358 10.5106 15.371 10.4262 15.3734H8.90683C8.86425 15.3734 8.82208 15.3651 8.78267 15.3488C8.74333 15.3324 8.70758 15.3086 8.6775 15.2785C8.64742 15.2483 8.6235 15.2126 8.60725 15.1732C8.59092 15.1339 8.5825 15.0917 8.5825 15.0492V8.80483C8.58492 8.7205 8.62017 8.64042 8.68075 8.58158C8.74125 8.52275 8.82242 8.48983 8.90683 8.48992H10.4262C10.5106 8.48983 10.5917 8.52275 10.6522 8.58158C10.7128 8.64042 10.748 8.7205 10.7504 8.80483V9.34225C10.9723 9.01767 11.2784 8.75992 11.636 8.59667C11.9935 8.43333 12.3888 8.37083 12.7793 8.41575C15.3086 8.41575 15.2993 10.7783 15.2993 12.1216L15.2808 14.9843Z" fill="#380404"/>
</svg>
