<svg width="32" height="32" viewBox="0 0 32 32" fill="none" xmlns="http://www.w3.org/2000/svg">
<path d="M29.333 15.9179C29.3462 13.7722 29.1635 11.6296 28.7873 9.51708C28.621 8.95932 28.3117 8.45481 27.8899 8.05376C27.4682 7.65269 26.9487 7.36906 26.3833 7.23106C22.9278 6.8265 19.4498 6.64424 15.9709 6.68537C12.4915 6.64381 9.0132 6.83102 5.55843 7.24581C4.99822 7.40069 4.4877 7.69814 4.07671 8.10913C3.66572 8.52012 3.36828 9.03061 3.21339 9.59082C2.83664 11.7033 2.65399 13.8458 2.66771 15.9917C2.65448 18.1374 2.83712 20.2799 3.21339 22.3925C3.3704 22.9597 3.67166 23.4765 4.08778 23.8926C4.50391 24.3087 5.02074 24.6101 5.58791 24.767C9.04346 25.1715 12.5214 25.3538 16.0003 25.3127C19.4695 25.3586 22.9381 25.1762 26.3833 24.767C26.9435 24.6121 27.4541 24.3147 27.865 23.9037C28.2759 23.4927 28.5734 22.9822 28.7283 22.4221C29.1379 20.2783 29.3405 18.1003 29.333 15.9179ZM19.4519 16.6937L14.1126 19.723C14.0049 19.7818 13.8838 19.8117 13.7611 19.8095C13.6385 19.8074 13.5185 19.7734 13.4129 19.711C13.3073 19.6485 13.2198 19.5597 13.1589 19.4533C13.098 19.3467 13.0657 19.2262 13.0654 19.1035V12.8207C13.0639 12.6976 13.0951 12.5763 13.156 12.4692C13.2169 12.3622 13.3052 12.2733 13.4119 12.2117C13.5185 12.1501 13.6397 12.1181 13.7627 12.1188C13.8859 12.1196 14.0066 12.1532 14.1126 12.2161L19.6285 15.387C19.7345 15.4498 19.8219 15.5397 19.8817 15.6475C19.9414 15.7553 19.9713 15.8771 19.9682 16.0003C19.9653 16.1235 19.9294 16.2437 19.8645 16.3485C19.7997 16.4533 19.7079 16.5387 19.599 16.5963L19.4519 16.6937Z" fill="#380404"/>
</svg>
