<svg width="20" height="20" viewBox="0 0 20 20" fill="none" xmlns="http://www.w3.org/2000/svg">
<path d="M11.519 10.1949C11.5056 10.4864 11.4098 10.7681 11.2427 11.0074C11.075 11.2547 10.8332 11.4423 10.5522 11.5437C10.274 11.6571 9.96773 11.6826 9.67465 11.6167C9.37998 11.5538 9.11107 11.4038 8.90273 11.1862C8.69648 10.9591 8.5609 10.6767 8.51273 10.3737C8.45832 10.0798 8.49523 9.77649 8.6184 9.50424C8.73848 9.23115 8.93623 8.9994 9.18715 8.83799C9.4434 8.67924 9.73882 8.59482 10.0402 8.59424C10.4377 8.61599 10.8121 8.78724 11.0884 9.07366C11.2315 9.22232 11.3432 9.39807 11.4172 9.59065C11.4912 9.78324 11.5258 9.98874 11.519 10.1949Z" fill="#380404"/>
<path d="M14.3866 6.66867C14.2917 6.43447 14.1508 6.22171 13.9721 6.04306C13.7935 5.8644 13.5807 5.72347 13.3466 5.62867C13.1107 5.5365 12.8604 5.48698 12.6071 5.48242H7.47219C6.9643 5.48456 6.47781 5.68727 6.11867 6.04641C5.75953 6.40555 5.55682 6.89203 5.55469 7.39992V12.6324C5.55505 12.8849 5.6055 13.1349 5.70312 13.3679C5.80075 13.6008 5.94361 13.8119 6.12344 13.9893C6.48244 14.3453 6.9666 14.5465 7.47219 14.5499H12.6071C13.1128 14.5465 13.5969 14.3453 13.9559 13.9893C14.1357 13.8119 14.2786 13.6008 14.3762 13.3679C14.4739 13.1349 14.5243 12.8849 14.5246 12.6324V7.40805C14.5229 7.15535 14.4761 6.90498 14.3866 6.66867ZM12.3553 11.2024C12.233 11.5065 12.0506 11.7829 11.8191 12.0149C11.5851 12.2504 11.3096 12.4404 11.0066 12.5755C10.7001 12.7043 10.372 12.7732 10.0396 12.7787C9.65906 12.7861 9.28156 12.7089 8.93448 12.5524C8.5874 12.396 8.27947 12.1644 8.03295 11.8744C7.78642 11.5843 7.60748 11.243 7.5091 10.8753C7.4107 10.5075 7.39532 10.1224 7.46406 9.74802C7.56418 9.2501 7.80368 8.79077 8.15469 8.42369C8.51298 8.06454 8.96881 7.81845 9.46565 7.71591C9.96248 7.61336 10.4785 7.65887 10.9496 7.8468C11.4226 8.03781 11.8255 8.36969 12.1034 8.79744C12.3845 9.20969 12.5371 9.69602 12.5421 10.1949C12.5541 10.5404 12.4902 10.8842 12.3553 11.2024ZM13.2491 7.18867C13.2578 7.25408 13.2524 7.3206 13.2333 7.38377C13.2142 7.44694 13.1819 7.50531 13.1385 7.55496C13.095 7.6046 13.0414 7.64439 12.9813 7.67165C12.9212 7.69891 12.856 7.71301 12.79 7.71301C12.724 7.71301 12.6588 7.69891 12.5987 7.67165C12.5386 7.64439 12.485 7.6046 12.4416 7.55496C12.3981 7.50531 12.3657 7.44694 12.3466 7.38377C12.3276 7.3206 12.3222 7.25408 12.3309 7.18867C12.3222 7.12326 12.3276 7.05675 12.3466 6.99357C12.3657 6.9304 12.3981 6.87204 12.4416 6.82239C12.485 6.77275 12.5386 6.73296 12.5987 6.7057C12.6588 6.67844 12.724 6.66434 12.79 6.66434C12.856 6.66434 12.9212 6.67844 12.9813 6.7057C13.0414 6.73296 13.095 6.77275 13.1385 6.82239C13.1819 6.87204 13.2142 6.9304 13.2333 6.99357C13.2524 7.05675 13.2578 7.12326 13.2491 7.18867Z" fill="#380404"/>
<path d="M14.0625 1.875H5.9375C4.86006 1.875 3.82674 2.30301 3.06487 3.06487C2.30301 3.82674 1.875 4.86006 1.875 5.9375V14.0625C1.875 15.1399 2.30301 16.1732 3.06487 16.9351C3.82674 17.697 4.86006 18.125 5.9375 18.125H14.0625C15.1399 18.125 16.1732 17.697 16.9351 16.9351C17.697 16.1732 18.125 15.1399 18.125 14.0625V5.9375C18.125 4.86006 17.697 3.82674 16.9351 3.06487C16.1732 2.30301 15.1399 1.875 14.0625 1.875ZM15.785 12.5512C15.7927 12.9774 15.7124 13.4006 15.5494 13.7944C15.2197 14.5839 14.592 15.2116 13.8025 15.5412C13.4087 15.7043 12.9855 15.7845 12.5593 15.7769H7.5625C7.1364 15.7838 6.71337 15.7037 6.31937 15.5412C5.92883 15.3769 5.57313 15.1398 5.27125 14.8425C4.97221 14.542 4.73483 14.186 4.5725 13.7944C4.40107 13.4023 4.31256 12.9791 4.3125 12.5512V7.51375C4.30554 7.08765 4.38572 6.66463 4.54812 6.27063C4.87042 5.47802 5.49228 4.84448 6.27875 4.5075C6.68748 4.34851 7.12417 4.27388 7.5625 4.28812H12.6C13.0223 4.28439 13.4412 4.36513 13.8318 4.52559C14.2225 4.68606 14.5772 4.923 14.875 5.2225C15.1723 5.52438 15.4094 5.88008 15.5737 6.27063C15.7362 6.66463 15.8163 7.08765 15.8094 7.51375L15.785 12.5512Z" fill="#380404"/>
</svg>
