<svg width="1104" height="330" viewBox="0 0 1104 330" fill="none" xmlns="http://www.w3.org/2000/svg">
<g clip-path="url(#clip0_648_134)">
<path d="M69.7739 113.922C81.4875 113.922 92.0748 116.941 101.536 122.978C110.997 129.015 118.475 137.124 123.972 147.306C129.468 157.488 132.216 168.976 132.216 181.771C132.216 194.386 129.468 205.784 123.972 215.966C118.475 226.148 110.997 234.212 101.536 240.159C92.0748 246.106 81.4875 249.079 69.7739 249.079C59.8624 249.079 51.0321 246.962 43.2831 242.727L42.6585 242.38C37.8976 239.694 33.7808 236.4 30.3081 232.496L30.0378 232.189V329.623L0.303223 300.439V116.625H30.0378V131.053L30.0674 131.019C33.8223 126.717 38.3176 123.136 43.5535 120.275C51.3025 116.04 60.0426 113.922 69.7739 113.922ZM64.9082 142.035C57.6999 142.035 51.3024 143.702 45.716 147.036C40.1295 150.37 35.8045 155.01 32.7409 160.957C29.6773 166.904 28.1456 173.752 28.1456 181.501C28.1456 189.25 29.6773 196.098 32.7409 202.045C35.8045 207.991 40.1295 212.632 45.716 215.966C51.3024 219.3 57.6999 220.967 64.9082 220.967C72.1166 220.967 78.469 219.3 83.9654 215.966C89.4618 212.632 93.7868 207.991 96.9405 202.045C100.094 196.098 101.671 189.25 101.671 181.501C101.671 173.752 100.094 166.904 96.9405 160.957C93.7868 155.01 89.4618 150.37 83.9654 147.036C78.469 143.702 72.1166 142.035 64.9082 142.035ZM202.81 249.079C212.902 249.079 222.453 247.187 231.464 243.403C240.474 239.618 248.133 234.032 254.44 226.643L235.518 207.451C231.554 211.956 226.733 215.38 221.057 217.723C215.38 220.065 209.208 221.237 202.54 221.237C194.791 221.237 187.943 219.57 181.996 216.236C176.049 212.902 171.454 208.172 168.21 202.045C166.736 199.26 165.596 196.27 164.792 193.075L164.672 192.584H261.469C261.955 190.151 262.332 187.9 262.6 185.832L262.685 185.15C262.955 182.897 263.09 180.69 263.09 178.527C263.09 166.093 260.432 155.01 255.116 145.279C249.8 135.547 242.502 127.888 233.221 122.302C223.94 116.715 213.263 113.922 201.189 113.922C188.754 113.922 177.446 116.896 167.264 122.843C157.082 128.789 149.018 136.854 143.071 147.036C137.124 157.217 134.151 168.706 134.151 181.501C134.151 194.296 137.169 205.829 143.206 216.101C149.243 226.373 157.443 234.437 167.805 240.294C178.167 246.151 189.835 249.079 202.81 249.079ZM233.822 168.255H164.754L164.868 167.803C165.563 165.119 166.495 162.61 167.666 160.276L167.94 159.74C171.003 153.884 175.329 149.333 180.915 146.09C186.501 142.846 193.079 141.224 200.648 141.224C207.856 141.224 213.938 142.666 218.894 145.549C223.85 148.432 227.679 152.577 230.382 157.983C231.865 160.948 232.995 164.292 233.773 168.016L233.822 168.255ZM302.058 246.376V171.499C302.058 165.732 303.319 160.596 305.842 156.091C308.365 151.586 311.868 148.072 316.351 145.549C320.833 143.026 326.003 141.765 331.86 141.765C340.465 141.765 347.516 144.558 353.012 150.144C358.508 155.731 361.257 162.849 361.257 171.499V246.376H390.991V165.012C390.991 156.542 388.829 148.387 384.503 140.548C380.178 132.709 374.232 126.312 366.663 121.356C359.094 116.4 350.479 113.922 340.818 113.922C331.16 113.922 322.511 116.13 314.87 120.545C310.045 123.333 305.88 126.769 302.377 130.851L302.057 131.23L302.058 116.625H272.323V246.376H302.058ZM421.849 92.8377C427.075 92.8377 431.31 91.1257 434.554 87.7018C437.797 84.2778 439.419 80.0429 439.419 74.997C439.419 69.9511 437.797 65.7162 434.554 62.2922C431.31 58.8683 427.075 57.1563 421.849 57.1563C416.803 57.1563 412.613 58.8683 409.279 62.2922C405.945 65.7162 404.279 69.9511 404.279 74.997C404.279 80.0429 405.945 84.2778 409.279 87.7018C412.613 91.1257 416.803 92.8377 421.849 92.8377ZM436.716 246.376V116.625H406.982V246.376H436.716ZM485.144 246.376V171.499C485.144 165.732 486.406 160.596 488.929 156.091C491.452 151.586 494.955 148.072 499.437 145.549C503.92 143.026 509.09 141.765 514.947 141.765C523.552 141.765 530.602 144.558 536.099 150.144C541.595 155.731 544.343 162.849 544.343 171.499V246.376H574.078V165.012C574.078 156.542 571.915 148.387 567.59 140.548C563.265 132.709 557.318 126.312 549.749 121.356C542.181 116.4 533.566 113.922 523.905 113.922C514.247 113.922 505.598 116.13 497.957 120.545C493.131 123.333 488.967 126.769 485.464 130.851L485.144 131.23L485.144 116.625H455.41V246.376H485.144ZM632.237 249.079C647.375 249.079 659.359 245.385 668.189 237.996C677.019 230.608 681.434 220.606 681.434 207.991C681.434 200.062 679.813 193.62 676.569 188.664C673.325 183.708 669.135 179.744 663.999 176.77C658.863 173.797 653.457 171.454 647.78 169.742C642.104 168.03 636.697 166.453 631.562 165.012C626.426 163.57 622.236 161.858 618.992 159.876C615.748 157.893 614.126 155.1 614.126 151.496C614.126 148.072 615.748 145.459 618.992 143.657C622.236 141.855 626.831 140.954 632.778 140.954C639.085 140.954 644.672 142.125 649.537 144.468C654.403 146.81 658.728 150.324 662.512 155.01L681.434 136.088C676.028 128.699 669.315 123.158 661.296 119.464C653.277 115.769 644.041 113.922 633.589 113.922C623.677 113.922 615.162 115.544 608.044 118.788C600.926 122.032 595.43 126.627 591.555 132.574C587.681 138.521 585.743 145.639 585.743 153.929C585.743 161.678 587.365 167.985 590.609 172.851C593.853 177.716 598.043 181.546 603.179 184.339C608.315 187.132 613.721 189.34 619.397 190.962C625.074 192.584 630.48 194.16 635.616 195.692C640.752 197.224 644.942 199.071 648.186 201.234C651.43 203.396 653.052 206.46 653.052 210.424C653.052 214.209 651.34 217.092 647.916 219.074C644.492 221.057 639.446 222.048 632.778 222.048C625.389 222.048 618.767 220.741 612.91 218.128C607.053 215.515 601.872 211.596 597.367 206.37L578.445 225.292C582.59 230.337 587.455 234.617 593.042 238.131C598.628 241.646 604.755 244.349 611.423 246.241C618.091 248.133 625.029 249.079 632.237 249.079ZM744.73 249.079C755.855 249.079 765.665 246.691 774.158 241.916C782.652 237.14 789.287 230.473 794.062 221.913C798.838 213.353 801.226 203.396 801.226 192.043V116.625H771.491V190.691C771.491 200.242 769.193 207.586 764.598 212.722C760.003 217.858 753.41 220.426 744.819 220.426C739.173 220.426 734.323 219.255 730.268 216.912C726.213 214.569 723.15 211.19 721.078 206.775C719.005 202.36 717.969 196.999 717.969 190.691V116.625H688.234V192.009C688.234 203.261 690.622 213.153 695.398 221.685C700.173 230.216 706.859 236.915 715.454 241.781C724.049 246.646 733.808 249.079 744.73 249.079ZM846.41 246.376V51.75H816.676V246.376H846.41ZM919.167 249.079C929.078 249.079 937.908 246.962 945.657 242.727C950.684 239.98 955.009 236.569 958.633 232.496L958.902 232.188L958.903 246.376H988.637V116.625H958.903L958.902 131.039L958.738 130.847C955.188 126.798 950.994 123.393 946.157 120.631L945.522 120.275C937.863 116.04 929.078 113.922 919.167 113.922C907.453 113.922 896.866 116.941 887.405 122.978C877.944 129.015 870.465 137.124 864.969 147.306C859.472 157.488 856.724 168.976 856.724 181.771C856.724 194.386 859.472 205.784 864.969 215.966C870.465 226.148 877.944 234.212 887.405 240.159C896.866 246.106 907.453 249.079 919.167 249.079ZM924.032 220.967C916.824 220.967 910.472 219.3 904.975 215.966C899.479 212.632 895.154 207.991 892 202.045C888.846 196.098 887.27 189.25 887.27 181.501C887.27 173.752 888.846 166.904 892 160.957C895.154 155.01 899.479 150.37 904.975 147.036C910.472 143.702 916.824 142.035 924.032 142.035C931.421 142.035 937.863 143.702 943.36 147.036C948.856 150.37 953.136 155.01 956.2 160.957C959.263 166.904 960.795 173.752 960.795 181.501C960.795 193.034 957.416 202.495 950.658 209.884C943.9 217.272 935.025 220.967 924.032 220.967Z" fill="white"/>
<path d="M0.549927 116.329V30.0644L30.1216 0.622559V88.4364L0.549927 116.329Z" fill="white"/>
<path d="M988.265 246.376H1074.53L1103.97 216.804H1016.16L988.265 246.376Z" fill="white"/>
</g>
<defs>
<clipPath id="clip0_648_134">
<rect width="1104" height="330" fill="white"/>
</clipPath>
</defs>
</svg>
